<svg width="32" height="33" viewBox="0 0 32 33" fill="none" xmlns="http://www.w3.org/2000/svg">
<path fillRule="evenodd" clip-rule="evenodd" d="M22.9318 17.0047C24.2924 18.3646 24.3776 19.2651 24.249 19.6186C24.1203 19.9721 23.4762 20.6071 21.5598 20.7743C19.7806 20.9295 17.4045 20.605 14.8942 19.6914C12.384 18.7777 10.3552 17.4989 9.09206 16.2364C7.73145 14.8765 7.64621 13.976 7.77487 13.6225C7.90353 13.269 8.54763 12.634 10.4641 12.4668C12.2432 12.3116 14.6193 12.6361 17.1296 13.5498C19.6399 14.4634 21.6687 15.7422 22.9318 17.0047ZM25.0952 14.8402C23.4506 13.1964 21.0093 11.7052 18.1763 10.674C15.3432 9.64288 12.5145 9.216 10.1981 9.4181C8.019 9.60822 5.67679 10.4393 4.89914 12.5758C4.12149 14.7124 5.38155 16.8546 6.92863 18.4009C8.57322 20.0447 11.0145 21.5359 13.8476 22.5671C16.6806 23.5982 19.5093 24.0251 21.8257 23.823C24.0048 23.6329 26.3471 22.8019 27.1247 20.6653C27.9024 18.5287 26.6423 16.3865 25.0952 14.8402Z" fill="#212123"/>
<path d="M15.4943 25.8245L15.5161 28.9215L11.3594 23.2891L15.4943 25.8245Z" fill="#4F28DD"/>
<path d="M15.4766 4.33984L15.4951 8.5365L17.458 7.37422L15.4766 4.33984Z" fill="#FC306B"/>
<path d="M23.3944 17.7656L19.6271 23.2856L15.4922 25.821V22.4809L23.3944 17.7656Z" fill="#53AEF9"/>
<path d="M7.61719 17.8047L11.361 23.287L15.4959 25.8224V22.4824L7.61719 17.8047Z" fill="#1A78D7"/>
<path d="M15.4916 22.4826V17.6547L9.53878 14.168L7.59576 17.477C7.51258 17.6187 7.55971 17.801 7.70126 17.8846L15.4916 22.4826Z" fill="#0BB875"/>
<path d="M15.4918 17.6542V12.886L11.6215 10.6211L9.53906 14.1675L15.4918 17.6542Z" fill="#FEB92F"/>
<path d="M11.6172 10.6195L15.4875 12.8844V8.53337L13.5247 7.37109L11.6172 10.6195Z" fill="#F86E30"/>
<path d="M15.4862 4.39423V8.53562L13.5234 7.37342L15.32 4.34858C15.3664 4.27044 15.4862 4.30338 15.4862 4.39423Z" fill="#E91224"/>
<path d="M15.4922 22.4826V17.6547L21.445 14.168L23.3881 17.477C23.4713 17.6187 23.4241 17.801 23.2826 17.8846L15.4922 22.4826Z" fill="#74CA38"/>
<path d="M15.4922 17.6542V12.886L19.3625 10.6211L21.445 14.1675L15.4922 17.6542Z" fill="#FFC866"/>
<path d="M19.3625 10.6195L15.4922 12.8844V8.53337L17.4551 7.37109L19.3625 10.6195Z" fill="#F78F31"/>
<path d="M15.4922 25.8245V28.8623C15.4922 28.9495 15.6043 28.9851 15.6546 28.9139L19.6271 23.2891L15.4922 25.8245Z" fill="#827FF4"/>
<path fillRule="evenodd" clip-rule="evenodd" d="M21.5444 20.7926C19.7653 20.9478 17.3892 20.6233 14.8789 19.7097C12.3687 18.796 10.3398 17.5173 9.07673 16.2547C7.71612 14.8948 7.63088 13.9943 7.75954 13.6408L4.88381 12.5942C4.10616 14.7307 5.36622 16.8729 6.9133 18.4192C8.55789 20.063 10.9992 21.5543 13.8322 22.5854C16.6653 23.6165 19.494 24.0434 21.8104 23.8413C23.9895 23.6512 26.3317 22.8202 27.1094 20.6836L24.2336 19.6369C24.105 19.9904 23.4609 20.6254 21.5444 20.7926Z" fill="#212123"/>
</svg>
