<svg
  width="86"
  height="84"
  viewBox="0 0 86 84"
  fill="none"
  xmlns="http://www.w3.org/2000/svg"
>
  <g clip-path="url(#clip0_1_2)">
    <g filter="url(#filter0_d_1_2)">
      <path
        d="M39.2796 83.9953C60.9732 83.9953 78.5592 65.1924 78.5592 41.9977C78.5592 18.803 60.9732 0 39.2796 0C17.5861 0 0 18.803 0 41.9977C0 65.1924 17.5861 83.9953 39.2796 83.9953Z"
        fill="#00A3FF"
        stroke="#794DEC"
        stroke-miterlimit="10"
      />
      <path
        d="M46.6824 84C68.3969 84 86 65.196 86 42.0001C86 18.804 68.3969 0 46.6824 0C24.968 0 7.36493 18.804 7.36493 42.0001C7.36493 65.196 24.968 84 46.6824 84Z"
        fill="#242326"
        stroke="#794DEC"
      />
      <path
        d="M46.7726 73.4561C63.3446 73.4561 76.7789 59.3685 76.7789 41.9906C76.7789 24.6128 63.3446 10.5252 46.7726 10.5252C30.2007 10.5252 16.7663 24.6128 16.7663 41.9906C16.7663 59.3685 30.2007 73.4561 46.7726 73.4561Z"
        fill="white"
        stroke="#794DEC"
      />
      <path
        d="M32.7404 37.8424L32.3555 38.4418C27.9738 45.5647 28.9211 54.8545 34.8276 60.7788C38.0696 64.3287 42.629 66.1037 47.2032 66.1037C47.2032 66.1037 47.2032 66.1037 32.7404 37.8424Z"
        fill="#00A3FF"
      />
      <path
        opacity="0.6"
        d="M47.2014 46.4867L32.7237 37.8424C47.1125 66.0807 47.2014 66.1037 47.2014 66.1037C47.2014 60.018 47.2014 52.9642 47.2014 46.4867Z"
        fill="#00A3FF"
      />
      <path
        opacity="0.6"
        d="M61.469 37.8424L61.8391 38.4418C66.1618 45.5647 65.2143 54.8545 59.3966 60.7788C56.0067 64.3287 51.6989 66.1037 47.1839 66.1037C47.1988 66.1037 47.1988 66.1037 61.469 37.8424Z"
        fill="#00A3FF"
      />
      <path
        opacity="0.2"
        d="M47.2026 46.2934L61.4581 37.8565C47.1729 66.3713 47.2026 66.0947 47.2026 66.0947C47.2026 59.9629 47.2026 52.817 47.2026 46.2934Z"
        fill="#00A3FF"
      />
      <path
        opacity="0.2"
        d="M47.2024 27.0266V42.0101L59.6224 34.6106L47.2024 27.0266Z"
        fill="#00A3FF"
      />
      <path
        opacity="0.6"
        d="M47.2032 27.0266L34.5463 34.6106L47.2032 42.0101V27.0266Z"
        fill="#00A3FF"
      />
      <path
        d="M47.2032 14.486L34.5463 34.633L47.2032 27.049V14.486Z"
        fill="#00A3FF"
      />
      <path
        opacity="0.6"
        d="M47.2024 27.049L59.6224 34.633L47.2024 14.486V27.049Z"
        fill="#00A3FF"
      />
    </g>
  </g>
  <defs>
    <filter
      id="filter0_d_1_2"
      x="-6.5"
      y="-0.5"
      width="99"
      height="97"
      filterUnits="userSpaceOnUse"
      color-interpolation-filters="sRGB"
    >
      <feFlood flood-opacity="0" result="BackgroundImageFix" />
      <feColorMatrix
        in="SourceAlpha"
        type="matrix"
        values="0 0 0 0 0 0 0 0 0 0 0 0 0 0 0 0 0 0 127 0"
        result="hardAlpha"
      />
      <feOffset dy="6" />
      <feGaussianBlur stdDeviation="3" />
      <feComposite in2="hardAlpha" operator="out" />
      <feColorMatrix
        type="matrix"
        values="0 0 0 0 0.141176 0 0 0 0 0.137255 0 0 0 0 0.14902 0 0 0 0.1 0"
      />
      <feBlend
        mode="normal"
        in2="BackgroundImageFix"
        result="effect1_dropShadow_1_2"
      />
      <feBlend
        mode="normal"
        in="SourceGraphic"
        in2="effect1_dropShadow_1_2"
        result="shape"
      />
    </filter>
    <clipPath id="clip0_1_2">
      <rect width="86" height="84" fill="white" />
    </clipPath>
  </defs>
</svg>
