<svg width="86" height="84" viewBox="0 0 86 84" fill="none" xmlns="http://www.w3.org/2000/svg">
<g clip-path="url(#clip0_2_58)">
<g filter="url(#filter0_d_2_58)">
<path d="M39.2796 83.9953C60.9732 83.9953 78.5592 65.1924 78.5592 41.9977C78.5592 18.803 60.9732 0 39.2796 0C17.5861 0 0 18.803 0 41.9977C0 65.1924 17.5861 83.9953 39.2796 83.9953Z" fill="#242326" stroke="#794DEC" stroke-miterlimit="10"/>
<path d="M46.6824 84C68.3969 84 86 65.196 86 42.0001C86 18.804 68.3969 0 46.6824 0C24.968 0 7.36493 18.804 7.36493 42.0001C7.36493 65.196 24.968 84 46.6824 84Z" fill="#242326" stroke="#794DEC"/>
<path d="M46.7726 73.4561C63.3446 73.4561 76.779 59.3685 76.779 41.9906C76.779 24.6128 63.3446 10.5252 46.7726 10.5252C30.2007 10.5252 16.7663 24.6128 16.7663 41.9906C16.7663 59.3685 30.2007 73.4561 46.7726 73.4561Z" fill="#242326" stroke="#794DEC"/>
</g>
<path d="M46.8073 72.8447C42.8329 72.8447 38.9768 72.0275 35.3452 70.4173C31.8382 68.8615 28.6907 66.6347 25.9856 63.8C23.2827 60.9651 21.1593 57.6618 19.676 53.9838C18.1406 50.1751 17.3615 46.1309 17.3615 41.9626C17.3615 37.7943 18.1406 33.7503 19.676 29.9414C21.1593 26.2634 23.2827 22.9624 25.9856 20.1254C28.6907 17.2906 31.8382 15.0637 35.3452 13.508C38.9768 11.8977 42.8329 11.0807 46.8073 11.0807C50.7818 11.0807 54.6377 11.8977 58.2694 13.508C61.7764 15.0637 64.924 17.2906 67.6289 20.1254C70.332 22.9601 72.4552 26.2634 73.9387 29.9414C75.474 33.7503 76.2531 37.7943 76.2531 41.9626C76.2531 46.1309 75.474 50.1751 73.9387 53.9838C72.4552 57.6618 70.332 60.963 67.6289 63.8C64.926 66.6347 61.7764 68.8615 58.2694 70.4173C54.6377 72.0297 50.7818 72.8447 46.8073 72.8447Z" fill="white"/>
<path d="M46.8093 71.2078C62.21 71.2078 74.6947 58.1141 74.6947 41.9622C74.6947 25.8102 62.21 12.7165 46.8093 12.7165C31.4086 12.7165 18.9237 25.8102 18.9237 41.9622C18.9237 58.1141 31.4086 71.2078 46.8093 71.2078Z" fill="black"/>
<path d="M47.5187 30.3284C51.2438 30.677 54.1753 33.9128 54.2667 37.8872L59.9821 40.3776L57.0029 35.2833L63.3374 28.6398L59.5521 24.6697L54.1254 30.3632L47.5207 19.0677V30.3284H47.5187Z" fill="white"/>
<path d="M54.1691 39.3681C53.6206 42.8282 50.8947 45.5149 47.5187 45.833V49.9468L60.0964 41.9523L54.1691 39.3681Z" fill="white"/>
<path d="M39.5345 39.3681L33.6072 41.9501L46.1849 49.9447V45.8308C42.8088 45.5149 40.083 42.8282 39.5345 39.3681Z" fill="white"/>
<path d="M59.9551 46.1436L47.5187 54.0487V64.5185L52.6358 56.9554L57.9773 62.5574L61.7627 58.5875L55.7792 52.312L59.9551 46.1436Z" fill="white"/>
<path d="M46.168 54.0487L33.7316 46.1436L37.9075 52.312L31.924 58.5875L35.7093 62.5574L41.0509 56.9576L46.168 64.5163V54.0487Z" fill="white"/>
<path d="M33.717 40.3798L39.4326 37.8893C39.524 33.9149 42.4554 30.6792 46.1806 30.3306V19.0677L39.5759 30.3632L34.1471 24.6697L30.3617 28.6419L36.6963 35.2855L33.717 40.3798Z" fill="white"/>
<path d="M47.102 37.1849C45.2675 36.5944 45.2675 36.2676 45.2675 36.0039C45.2675 35.6379 45.7952 35.1324 46.7862 35.1324C47.3721 35.1324 48.3569 35.2849 48.3569 36.3133H50.1415C50.1415 34.4874 48.7932 33.2607 46.7862 33.2607C44.6401 33.2607 43.4828 34.6748 43.4828 36.0039C43.4828 37.8212 45.0036 38.4661 46.566 38.9717C48.4005 39.5622 48.411 39.8933 48.411 40.157C48.411 40.5231 47.8832 41.0286 46.8921 41.0286C46.3043 41.0286 45.3216 40.876 45.3216 39.8475H43.5368C43.5368 41.6736 44.8852 42.9003 46.8921 42.9003C49.0384 42.9003 50.1956 41.4861 50.1956 40.157C50.1976 38.3375 48.6665 37.6882 47.102 37.1849Z" fill="white"/>
</g>
<defs>
<filter id="filter0_d_2_58" x="-6.5" y="-0.5" width="99" height="97" filterUnits="userSpaceOnUse" color-interpolation-filters="sRGB">
<feFlood flood-opacity="0" result="BackgroundImageFix"/>
<feColorMatrix in="SourceAlpha" type="matrix" values="0 0 0 0 0 0 0 0 0 0 0 0 0 0 0 0 0 0 127 0" result="hardAlpha"/>
<feOffset dy="6"/>
<feGaussianBlur stdDeviation="3"/>
<feComposite in2="hardAlpha" operator="out"/>
<feColorMatrix type="matrix" values="0 0 0 0 0.141176 0 0 0 0 0.137255 0 0 0 0 0.14902 0 0 0 0.1 0"/>
<feBlend mode="normal" in2="BackgroundImageFix" result="effect1_dropShadow_2_58"/>
<feBlend mode="normal" in="SourceGraphic" in2="effect1_dropShadow_2_58" result="shape"/>
</filter>
<clipPath id="clip0_2_58">
<rect width="86" height="84" fill="white"/>
</clipPath>
</defs>
</svg>
