<svg width="86" height="84" viewBox="0 0 86 84" fill="none" xmlns="http://www.w3.org/2000/svg">
<g clip-path="url(#clip0_2_31)">
<g filter="url(#filter0_d_2_31)">
<path d="M39.2796 83.9953C60.9732 83.9953 78.5592 65.1924 78.5592 41.9977C78.5592 18.803 60.9732 0 39.2796 0C17.5861 0 0 18.803 0 41.9977C0 65.1924 17.5861 83.9953 39.2796 83.9953Z" fill="#F66E30" stroke="#794DEC" stroke-miterlimit="10"/>
<path d="M46.6824 84C68.3969 84 86 65.196 86 42.0001C86 18.804 68.3969 0 46.6824 0C24.968 0 7.36493 18.804 7.36493 42.0001C7.36493 65.196 24.968 84 46.6824 84Z" fill="#242326" stroke="#794DEC"/>
<path d="M46.7726 73.4561C63.3446 73.4561 76.7789 59.3685 76.7789 41.9906C76.7789 24.6128 63.3446 10.5252 46.7726 10.5252C30.2007 10.5252 16.7663 24.6128 16.7663 41.9906C16.7663 59.3685 30.2007 73.4561 46.7726 73.4561Z" fill="#F66E30" stroke="#794DEC"/>
</g>
<mask id="mask0_2_31" style="mask-type:luminance" maskUnits="userSpaceOnUse" x="22" y="16" width="50" height="52">
<path d="M71.2145 16H22V67.7244H71.2145V16Z" fill="white"/>
</mask>
<g mask="url(#mask0_2_31)">
<path opacity="0.34" d="M46.5994 67.7244C60.1896 67.7244 71.2066 56.1455 71.2066 41.8622C71.2066 27.579 60.1896 16 46.5994 16C33.0092 16 21.9921 27.579 21.9921 41.8622C21.9921 56.1455 33.0092 67.7244 46.5994 67.7244Z" fill="url(#paint0_radial_2_31)"/>
<path d="M46.5652 47.4424L37.2031 41.6217L46.5652 25.2988L55.919 41.6217L46.5652 47.4424Z" fill="white"/>
<path d="M46.5652 57.3527L37.2031 43.4942L46.5652 49.3061L55.9275 43.4942L46.5652 57.3527Z" fill="white"/>
</g>
</g>
<defs>
<filter id="filter0_d_2_31" x="-6.5" y="-0.5" width="99" height="97" filterUnits="userSpaceOnUse" color-interpolation-filters="sRGB">
<feFlood flood-opacity="0" result="BackgroundImageFix"/>
<feColorMatrix in="SourceAlpha" type="matrix" values="0 0 0 0 0 0 0 0 0 0 0 0 0 0 0 0 0 0 127 0" result="hardAlpha"/>
<feOffset dy="6"/>
<feGaussianBlur stdDeviation="3"/>
<feComposite in2="hardAlpha" operator="out"/>
<feColorMatrix type="matrix" values="0 0 0 0 0.141176 0 0 0 0 0.137255 0 0 0 0 0.14902 0 0 0 0.1 0"/>
<feBlend mode="normal" in2="BackgroundImageFix" result="effect1_dropShadow_2_31"/>
<feBlend mode="normal" in="SourceGraphic" in2="effect1_dropShadow_2_31" result="shape"/>
</filter>
<radialGradient id="paint0_radial_2_31" cx="0" cy="0" r="1" gradientUnits="userSpaceOnUse" gradientTransform="translate(38.0689 28.3708) rotate(55.5091) scale(42.151 41.4509)">
<stop stop-color="#FFD794"/>
<stop offset="1" stop-color="#ED5A37"/>
</radialGradient>
<clipPath id="clip0_2_31">
<rect width="86" height="84" fill="white"/>
</clipPath>
</defs>
</svg>
